#!OML:ASF F:\VICON\USERDATA\INSTALL\rory3\rory3.ASF
:FULLY-SPECIFIED
:DEGREES
36
root -1.1440828467565836 17.5814394181783 -9.91509683081446 4.544480057194785 -1.0422132897816154 1.271950709066087
lfemur -21.80492101725046 6.628635664366787 -27.049990246254527
ltibia 31.153945766692807
lfoot 6.146798964531223 -13.920646143172235
ltoes -13.160614912919295
rfemur -3.1593414675796563 8.075049300708931 25.01730949657243
rtibia 65.8359971551534
rfoot 13.787615164112122 -9.46343748524573
rtoes 1.3486685380634325
lowerback 15.083910941292418 1.850409825028505 -0.6558612348719396
upperback -0.7291658888481951 2.2026644078039976 -1.5035875874764812
thorax -8.081912725291872 1.0901269214337757 -1.3203318139900682
lowerneck -19.01276323623276 -5.711291499008784 -1.9178660642127403
upperneck 11.241473468691444 -8.284609130400817 5.371792666796975
head 6.851074217601795 -3.4905985879664465 1.0600319844182051
lclavicle -2.0490533124716615e-17 4.258099200540272e-16
lhumerus -65.84474578517566 -0.3375894480006201 89.0921805639595
lradius 95.22458372099527
lwrist 35.28652856178865
lhand -27.59996548473342 2.1679283429439336
lfingers 7.125019999999998
lthumb -0.7978796385072795 31.067688994667975
rclavicle -2.0490533370681088e-17 4.2580991989162414e-16
rhumerus -33.915284490501556 19.874408825184968 -95.90166385924277
rradius 101.41598144471082
rwrist -19.555115474137878
rhand -19.408718814716742 40.07503118917181
rfingers 7.125019999999998
rthumb 6.576517161935389 10.336350261066261
37
root -1.1532667060656374 17.520329971482013 -9.370040170864605 4.398251674529154 -1.1858064539514004 1.384240645438006
lfemur -20.162616831728695 6.852148767288801 -27.17350041139406
ltibia 32.21413840037546
lfoot 5.782549572739709 -15.02641973519911
ltoes -8.231407150627062
rfemur -6.141861110368145 7.192694804874282 24.41143835639194
rtibia 68.3998825575125
rfoot 11.92898458955441 -10.107419952820226
rtoes 2.2802735110074854
lowerback 15.241325286696519 1.7702221524984116 -0.9504620092708239
upperback -0.6525200336120052 2.028621950661176 -1.5481534721639671
thorax -8.063849203667203 1.0148166105681713 -1.026719147770955
lowerneck -19.100255221943502 -5.695332082743864 -1.8999004485753257
upperneck 11.16452776141698 -8.285154333760236 5.512142659712923
head 6.872446061789608 -3.4723419931846253 1.0897662064424967
lclavicle -2.049053315686759e-17 4.258099200344076e-16
lhumerus -64.74022590841105 -1.0130747383174938 89.29085359131129
lradius 94.6827358736103
lwrist 34.99459901444759
lhand -27.743393772518274 2.3598384569888493
lfingers 7.125019999999998
lthumb -0.9999666764106094 30.56523562140022
rclavicle -2.0490533406164917e-17 4.2580991986983684e-16
rhumerus -34.63637113973739 19.446693736007774 -95.98769123634726
rradius 98.6749735015144
rwrist -19.749520860065658
rhand -19.33248828470613 40.03981352479809
rfingers 7.125019999999998
rthumb 6.569378687888854 10.369312699742256
38
root -1.1568482540962082 17.490507508785484 -8.67722715895879 4.275354449030219 -1.3363757850255409 1.4857082794758467
lfemur -18.649983976309457 6.9845657063600735 -27.19692075996988
ltibia 33.868096543694456
lfoot 5.511312633147384 -16.175603871438284
ltoes -2.7877958477066347
rfemur -9.232414481696349 6.296980125583948 23.764328419183453
rtibia 70.38991048435976
rfoot 10.028862346326102 -10.463046134692146
rtoes 2.76238892603097
lowerback 15.365769467470972 1.702314386567108 -1.1653072655680217
upperback -0.5618728823437391 1.9212372002947593 -1.538808995923941
thorax -8.062811645463299 0.9752051954966873 -0.8175020257102943
lowerneck -19.269581259374444 -5.676060952303278 -1.8510934938287202
upperneck 11.072724191334629 -8.279895910592836 5.608286717970993
head 6.875757104818342 -3.4444878483592536 1.1115331827796455
lclavicle -2.0490533145918823e-17 4.2580992004457067e-16
lhumerus -63.64514654456521 -1.8327816809422801 89.42841418878676
lradius 94.13547525691932
lwrist 34.66104199517038
lhand -27.82373906370811 2.8626504918059137
lfingers 7.125019999999998
lthumb -0.9352368218334166 30.795729957098807
rclavicle -2.0490533430482762e-17 4.2580991985768695e-16
rhumerus -35.34308112432522 19.045751418016135 -96.11172575162448
rradius 95.80972577005518
rwrist -19.934035636084054
rhand -19.298442637689366 39.983212733704015
rfingers 7.125019999999998
rthumb 6.543868860316768 10.295959450561725
39
root -1.1573866564548845 17.422970093509388 -8.050598255789435 4.121612838807117 -1.4831228938611818 1.6248484150528488
lfemur -17.216398490911068 7.095146385854334 -27.276123634049583
ltibia 35.84138968465854
lfoot 4.434730805454979 -17.014420356488856
ltoes -0.3530678290084275
rfemur -12.268450710117513 5.5209982184616315 23.1571945912683
rtibia 71.89552501112026
rfoot 7.619186201646383 -10.567504424910274
rtoes 3.8115123971998313
lowerback 15.546242860289942 1.6371777445673081 -1.420108580224022
upperback -0.4777628128479649 1.7777198320617724 -1.5238357511784062
thorax -8.166270737239829 0.9158871833354124 -0.6563294974649874
lowerneck -19.466040869602093 -5.691941950818871 -1.8012846745099906
upperneck 10.97048562656896 -8.303801468939543 5.6967080195947215
head 6.868158862980526 -3.431616494532392 1.1326105885345759
lclavicle -2.0490533164275718e-17 4.258099200329937e-16
lhumerus -62.270018913234715 -2.660085396972957 89.65740875533393
lradius 93.47207751767729
lwrist 34.3100715725348
lhand -28.19052985612442 3.545870767907311
lfingers 7.125019999999998
lthumb -1.2434264387497882 30.799853966896784
rclavicle -2.0490533389609343e-17 4.2580991988416e-16
rhumerus -36.054687089363505 18.695352510991363 -96.29309576331443
rradius 92.84937182319432
rwrist -20.057437433942148
rhand -19.324070076969875 39.792776350057636
rfingers 7.125019999999998
rthumb 6.497065742823787 10.077379153832954
